<svg width="57" height="23" viewBox="0 0 57 23" fill="none" xmlns="http://www.w3.org/2000/svg">
    <path fill-rule="evenodd" clip-rule="evenodd" d="M0 5C0 2.23858 2.23858 0 5 0H52C54.7614 0 57 2.23858 57 5V18C57 20.7614 54.7614 23 52 23H5C2.23858 23 0 20.7614 0 18V5Z" fill="#41AD49"/>
    <path d="M12.3594 5.625V17H10.0156V5.625H12.3594ZM16.8906 10.4844V12.3125H11.7188V10.4844H16.8906ZM17.4375 5.625V7.46094H11.7188V5.625H17.4375ZM21.0312 5V17H18.7734V5H21.0312ZM27.4531 15.0938V11.3281C27.4531 11.0573 27.4089 10.8255 27.3203 10.6328C27.2318 10.4349 27.0938 10.2812 26.9062 10.1719C26.724 10.0625 26.487 10.0078 26.1953 10.0078C25.9453 10.0078 25.7292 10.0521 25.5469 10.1406C25.3646 10.224 25.224 10.3464 25.125 10.5078C25.026 10.6641 24.9766 10.849 24.9766 11.0625H22.7266C22.7266 10.7031 22.8099 10.362 22.9766 10.0391C23.1432 9.71615 23.3854 9.43229 23.7031 9.1875C24.0208 8.9375 24.3984 8.74219 24.8359 8.60156C25.2786 8.46094 25.7734 8.39062 26.3203 8.39062C26.9766 8.39062 27.5599 8.5 28.0703 8.71875C28.5807 8.9375 28.9818 9.26562 29.2734 9.70312C29.5703 10.1406 29.7188 10.6875 29.7188 11.3438V14.9609C29.7188 15.4245 29.7474 15.8047 29.8047 16.1016C29.862 16.3932 29.9453 16.6484 30.0547 16.8672V17H27.7812C27.6719 16.7708 27.5885 16.4844 27.5312 16.1406C27.4792 15.7917 27.4531 15.4427 27.4531 15.0938ZM27.75 11.8516L27.7656 13.125H26.5078C26.2109 13.125 25.9531 13.1589 25.7344 13.2266C25.5156 13.2943 25.3359 13.3906 25.1953 13.5156C25.0547 13.6354 24.9505 13.776 24.8828 13.9375C24.8203 14.099 24.7891 14.276 24.7891 14.4688C24.7891 14.6615 24.8333 14.8359 24.9219 14.9922C25.0104 15.1432 25.138 15.263 25.3047 15.3516C25.4714 15.4349 25.6667 15.4766 25.8906 15.4766C26.2292 15.4766 26.5234 15.4089 26.7734 15.2734C27.0234 15.138 27.2161 14.9714 27.3516 14.7734C27.4922 14.5755 27.5651 14.388 27.5703 14.2109L28.1641 15.1641C28.0807 15.3776 27.9661 15.599 27.8203 15.8281C27.6797 16.0573 27.5 16.2734 27.2812 16.4766C27.0625 16.6745 26.7995 16.8385 26.4922 16.9688C26.1849 17.0938 25.8203 17.1562 25.3984 17.1562C24.862 17.1562 24.375 17.0495 23.9375 16.8359C23.5052 16.6172 23.1615 16.3177 22.9062 15.9375C22.6562 15.5521 22.5312 15.1146 22.5312 14.625C22.5312 14.1823 22.6146 13.7891 22.7812 13.4453C22.9479 13.1016 23.1927 12.8125 23.5156 12.5781C23.8438 12.3385 24.2526 12.1589 24.7422 12.0391C25.2318 11.9141 25.7995 11.8516 26.4453 11.8516H27.75ZM36.0234 14.6641C36.0234 14.5026 35.9766 14.3568 35.8828 14.2266C35.7891 14.0964 35.6146 13.9766 35.3594 13.8672C35.1094 13.7526 34.7474 13.6484 34.2734 13.5547C33.8464 13.4609 33.4479 13.3438 33.0781 13.2031C32.7135 13.0573 32.3958 12.8828 32.125 12.6797C31.8594 12.4766 31.651 12.237 31.5 11.9609C31.349 11.6797 31.2734 11.3594 31.2734 11C31.2734 10.6458 31.349 10.3125 31.5 10C31.6562 9.6875 31.8776 9.41146 32.1641 9.17188C32.4557 8.92708 32.8099 8.73698 33.2266 8.60156C33.6484 8.46094 34.1224 8.39062 34.6484 8.39062C35.3828 8.39062 36.013 8.50781 36.5391 8.74219C37.0703 8.97656 37.4766 9.29948 37.7578 9.71094C38.0443 10.1172 38.1875 10.5807 38.1875 11.1016H35.9375C35.9375 10.8828 35.8906 10.6875 35.7969 10.5156C35.7083 10.3385 35.5677 10.2005 35.375 10.1016C35.1875 9.9974 34.9427 9.94531 34.6406 9.94531C34.3906 9.94531 34.1745 9.98958 33.9922 10.0781C33.8099 10.1615 33.6693 10.276 33.5703 10.4219C33.4766 10.5625 33.4297 10.7188 33.4297 10.8906C33.4297 11.0208 33.4557 11.138 33.5078 11.2422C33.5651 11.3411 33.6562 11.4323 33.7812 11.5156C33.9062 11.599 34.0677 11.6771 34.2656 11.75C34.4688 11.8177 34.7188 11.8802 35.0156 11.9375C35.625 12.0625 36.1693 12.2266 36.6484 12.4297C37.1276 12.6276 37.5078 12.8984 37.7891 13.2422C38.0703 13.5807 38.2109 14.026 38.2109 14.5781C38.2109 14.9531 38.1276 15.2969 37.9609 15.6094C37.7943 15.9219 37.5547 16.1953 37.2422 16.4297C36.9297 16.6589 36.5547 16.8385 36.1172 16.9688C35.6849 17.0938 35.1979 17.1562 34.6562 17.1562C33.8698 17.1562 33.2031 17.0156 32.6562 16.7344C32.1146 16.4531 31.7031 16.0964 31.4219 15.6641C31.1458 15.2266 31.0078 14.7786 31.0078 14.3203H33.1406C33.151 14.6276 33.2292 14.875 33.375 15.0625C33.526 15.25 33.7161 15.3854 33.9453 15.4688C34.1797 15.5521 34.4323 15.5938 34.7031 15.5938C34.9948 15.5938 35.237 15.5547 35.4297 15.4766C35.6224 15.3932 35.7682 15.2839 35.8672 15.1484C35.9714 15.0078 36.0234 14.8464 36.0234 14.6641ZM41.8672 5V17H39.6172V5H41.8672ZM41.5469 12.4766H40.9297C40.9349 11.888 41.013 11.3464 41.1641 10.8516C41.3151 10.3516 41.5312 9.91927 41.8125 9.55469C42.0938 9.1849 42.4297 8.89844 42.8203 8.69531C43.2161 8.49219 43.6536 8.39062 44.1328 8.39062C44.5495 8.39062 44.9271 8.45052 45.2656 8.57031C45.6094 8.6849 45.9036 8.8724 46.1484 9.13281C46.3984 9.38802 46.5911 9.72396 46.7266 10.1406C46.862 10.5573 46.9297 11.0625 46.9297 11.6562V17H44.6641V11.6406C44.6641 11.2656 44.6094 10.9714 44.5 10.7578C44.3958 10.5391 44.2422 10.3854 44.0391 10.2969C43.8411 10.2031 43.5964 10.1562 43.3047 10.1562C42.9818 10.1562 42.7057 10.2161 42.4766 10.3359C42.2526 10.4557 42.0729 10.6224 41.9375 10.8359C41.8021 11.0443 41.7031 11.2891 41.6406 11.5703C41.5781 11.8516 41.5469 12.1536 41.5469 12.4766Z" fill="white"/>
</svg>
